<svg width="12" height="12" viewBox="0 0 12 12" fill="none" xmlns="http://www.w3.org/2000/svg"><path fill-rule="evenodd" clip-rule="evenodd" d="M5.99571 0C4.37455 0 4.16869 0.00857143 3.53395 0.0342857H3.52537C2.89064 0.06 2.45318 0.162857 2.06719 0.308571C1.67262 0.462857 1.3381 0.668571 1.00357 1.00286C0.669049 1.33714 0.463188 1.67143 0.308792 2.06571C0.162974 2.45143 0.0600429 2.88 0.0343102 3.52286C0.00857756 4.16571 0 4.38 0 6C0 7.62 0 7.83429 0.0343102 8.47714C0.0600429 9.11143 0.162974 9.54857 0.308792 9.93429C0.463188 10.3286 0.669049 10.6629 1.00357 10.9971C1.3381 11.3314 1.67262 11.5371 2.06719 11.6914C2.45318 11.8371 2.88206 11.94 3.52537 11.9657H3.53395C4.16869 11.9914 4.37455 12 5.99571 12C7.61687 12 7.83131 12 8.47462 11.9657C9.10936 11.94 9.54682 11.8371 9.93281 11.6914C10.3274 11.5371 10.6619 11.3314 10.9964 10.9971C11.331 10.6629 11.5368 10.3286 11.6912 9.93429C11.837 9.54857 11.94 9.12 11.9657 8.47714C11.9914 7.83429 12 7.62 12 6C12 4.38 12 4.16571 11.9657 3.52286C11.94 2.88857 11.837 2.45143 11.6912 2.06571C11.5368 1.67143 11.331 1.33714 10.9964 1.00286C10.6619 0.668571 10.3274 0.462857 9.93281 0.308571C9.54682 0.162857 9.11794 0.06 8.47462 0.0342857H8.46605C7.83131 0.00857143 7.62545 0 6.00429 0H5.99571ZM5.99571 2.92286C4.28878 2.92286 2.90779 4.30286 2.90779 6.00857C2.90779 7.71429 4.28878 9.09429 5.99571 9.09429C7.70264 9.09429 9.08363 7.71429 9.08363 6.00857C9.08363 4.30286 7.70264 2.92286 5.99571 2.92286ZM5.99571 7.72286C5.05218 7.72286 4.2802 6.95143 4.2802 6.00857C4.2802 5.06571 5.05218 4.29429 5.99571 4.29429C6.93924 4.29429 7.71122 5.06571 7.71122 6.00857C7.71122 6.95143 6.93924 7.72286 5.99571 7.72286ZM9.20372 3.52286C9.59828 3.52286 9.92423 3.19714 9.92423 2.80286C9.92423 2.40857 9.59828 2.08286 9.20372 2.08286C8.80915 2.08286 8.4832 2.40857 8.4832 2.80286C8.4832 3.19714 8.80915 3.52286 9.20372 3.52286Z" fill="currentColor"/></svg>