<svg width="15" height="15" viewBox="0 0 15 15" fill="none" xmlns="http://www.w3.org/2000/svg"><path d="M13.8481 4.84518L13.8422 4.81584C12.7905 2.07218 10.2208 0.299805 7.29907 0.299805C4.37733 0.299805 1.82668 2.05897 0.766227 4.78503H0.754493L0.736892 4.83345C0.446478 5.63013 0.299805 6.46057 0.299805 7.2998C0.299805 8.13904 0.452345 8.98268 0.753026 9.7603C0.757426 9.77937 0.767694 9.79844 0.783828 9.81165C1.82521 12.5392 4.38027 14.2998 7.30054 14.2998C10.2208 14.2998 12.7729 12.5406 13.8334 9.81458H13.8451L13.8627 9.76616C14.1531 8.96948 14.2998 8.13904 14.2998 7.2998C14.2998 6.46057 14.1487 5.62133 13.8495 4.84372L13.8481 4.84518ZM7.54548 4.66472V0.803054C8.78634 0.973248 9.88493 2.47126 10.3748 4.66325H7.54548V4.66472ZM10.8735 4.66472C10.5362 3.08748 9.87173 1.78901 9.02395 1.029C10.9072 1.54986 12.4635 2.88647 13.2452 4.66472H10.8735ZM7.54548 5.1577H10.4555C10.564 5.84581 10.6183 6.47964 10.6183 7.09293C10.6183 7.87788 10.542 8.66283 10.3895 9.42577H7.54548V5.1577ZM8.91982 13.6014C9.75439 12.8473 10.4306 11.5297 10.8016 9.92022H13.2452C12.4341 11.7586 10.8383 13.1128 8.91982 13.6014ZM7.54548 13.7966V9.93783H10.2853C9.76466 12.0755 8.67634 13.6044 7.54548 13.7966ZM11.1126 7.112C11.1126 6.41802 11.0598 5.76658 10.9542 5.17677H13.4271C13.6647 5.87662 13.7864 6.59702 13.7864 7.31888C13.7864 8.07302 13.6735 8.76994 13.4432 9.44338H10.9028C11.0422 8.73032 11.1126 7.94537 11.1126 7.11054V7.112ZM7.05119 9.92022V13.779C5.8998 13.5897 4.83495 12.0946 4.30986 9.92022H7.05119ZM3.67917 9.42577H1.15345C0.915834 8.74499 0.794095 8.029 0.794095 7.30127C0.794095 6.57354 0.914367 5.85755 1.15345 5.15916H3.62783C3.52076 5.84581 3.46796 6.47964 3.46796 7.0944C3.46796 7.85881 3.53689 8.62175 3.67917 9.42724V9.42577ZM1.35145 4.66472C2.13469 2.88647 3.6909 1.55132 5.57272 1.029C4.72495 1.78754 4.06052 3.08748 3.72317 4.66472H1.35145ZM4.19106 9.44338C4.03852 8.68044 3.96225 7.89549 3.96225 7.11054C3.96225 6.48844 4.01651 5.83701 4.12505 5.1753H7.05266V9.44338H4.19106ZM3.79504 9.93783C4.16466 11.5341 4.84082 12.8502 5.67833 13.6161C3.75984 13.1128 2.16403 11.7601 1.35292 9.93783H3.79504ZM7.05119 0.804521V4.66472H4.22186C4.71175 2.4874 5.81033 0.989388 7.05119 0.804521Z" fill="currentColor" stroke="currentColor" stroke-width="0.6"/></svg>