<svg width="14" height="14" viewBox="0 0 14 14" fill="none" xmlns="http://www.w3.org/2000/svg"><path d="M12.95 0H1.05C0.771523 0 0.504451 0.110625 0.307538 0.307538C0.110625 0.504451 0 0.771523 0 1.05V12.95C0 13.2285 0.110625 13.4955 0.307538 13.6925C0.504451 13.8894 0.771523 14 1.05 14H12.95C13.2285 14 13.4955 13.8894 13.6925 13.6925C13.8894 13.4955 14 13.2285 14 12.95V1.05C14 0.771523 13.8894 0.504451 13.6925 0.307538C13.4955 0.110625 13.2285 0 12.95 0ZM4.2 11.9H2.1V5.6H4.2V11.9ZM3.15 4.375C2.90933 4.36812 2.67602 4.29047 2.47923 4.15175C2.28243 4.01304 2.13088 3.8194 2.04351 3.59504C1.95613 3.37069 1.93681 3.12555 1.98796 2.89028C2.0391 2.655 2.15845 2.44002 2.33108 2.27218C2.50371 2.10435 2.72197 1.9911 2.9586 1.9466C3.19522 1.9021 3.43971 1.92832 3.66151 2.02198C3.88332 2.11564 4.07261 2.27258 4.20573 2.4732C4.33885 2.67383 4.4099 2.90923 4.41 3.15C4.40447 3.47924 4.26884 3.79291 4.03273 4.02246C3.79663 4.252 3.47927 4.37875 3.15 4.375ZM11.9 11.9H9.8V8.582C9.8 7.588 9.38 7.231 8.834 7.231C8.67392 7.24166 8.51752 7.28384 8.37378 7.35512C8.23005 7.42639 8.10181 7.52537 7.99644 7.64635C7.89107 7.76733 7.81064 7.90794 7.75976 8.0601C7.70889 8.21226 7.68858 8.37297 7.7 8.533C7.69653 8.56557 7.69653 8.59843 7.7 8.631V11.9H5.6V5.6H7.63V6.51C7.83477 6.1985 8.1161 5.9448 8.44703 5.7732C8.77797 5.60161 9.14742 5.51787 9.52 5.53C10.605 5.53 11.872 6.132 11.872 8.092L11.9 11.9Z" fill="currentColor"/></svg>