<svg width="43" height="33" viewBox="0 0 43 33" fill="none" xmlns="http://www.w3.org/2000/svg"><path d="M15.1389 2.41164L1.77389 30.5026C1.64234 30.7791 1.36668 30.9548 1.06437 30.9548H0.105073C0.0470427 30.9548 0 31.0026 0 31.0616V31.9155C0 31.9744 0.0470427 32.0222 0.105073 32.0222H8.92138C10.5336 32.0222 12.0038 31.0853 12.7054 29.6107L18.6047 17.2122C18.6238 17.172 18.6802 17.172 18.6993 17.2122L25.2722 31.0553C25.5529 31.6465 26.1419 32.0222 26.788 32.0222H38.877C40.6179 32.0222 42.0292 30.5885 42.0292 28.82V3.20222C42.0292 1.43368 40.6179 0 38.877 0H18.923C17.3107 0 15.8405 0.936965 15.1389 2.41164ZM30.732 30.9548H26.771C26.4678 30.9548 26.1913 30.7785 26.0596 30.501L19.222 16.1002C19.1941 16.0416 19.1942 15.9732 19.2221 15.9146L26.0709 1.51959C26.2025 1.24309 26.4782 1.06741 26.7805 1.06741H30.7338C31.1691 1.06741 31.5219 1.42583 31.5219 1.86796V30.1524C31.5219 30.5956 31.1682 30.9548 30.732 30.9548Z" fill="currentColor"/></svg>